<svg width="17" height="17" viewBox="0 0 17 17" fill="none" xmlns="http://www.w3.org/2000/svg">
    <path d="M11.9356 0H5.06439C2.27187 0 0 2.27187 0 5.06439V11.9356C0 14.7281 2.27187 17 5.06439 17H11.9356C14.7281 17 17 14.7281 17 11.9356V5.06439C17 2.27187 14.7281 0 11.9356 0ZM15.2898 11.9356C15.2898 13.7881 13.7881 15.2898 11.9356 15.2898H5.06439C3.21194 15.2898 1.7102 13.7881 1.7102 11.9356V5.06439C1.7102 3.21191 3.21194 1.7102 5.06439 1.7102H11.9356C13.7881 1.7102 15.2898 3.21191 15.2898 5.06439V11.9356Z" fill="#333333"/>
    <path d="M8.49837 4.10352C6.07397 4.10352 4.10156 6.07592 4.10156 8.50029C4.10156 10.9247 6.07397 12.8971 8.49837 12.8971C10.9228 12.8971 12.8952 10.9247 12.8952 8.50029C12.8952 6.07589 10.9228 4.10352 8.49837 4.10352ZM8.49837 11.1869C7.01458 11.1869 5.81176 9.9841 5.81176 8.50032C5.81176 7.01654 7.01461 5.81371 8.49837 5.81371C9.98215 5.81371 11.185 7.01654 11.185 8.50032C11.185 9.98407 9.98212 11.1869 8.49837 11.1869Z" fill="#333333"/>
    <path d="M12.9051 5.18965C13.487 5.18965 13.9587 4.71795 13.9587 4.13608C13.9587 3.55422 13.487 3.08252 12.9051 3.08252C12.3233 3.08252 11.8516 3.55422 11.8516 4.13608C11.8516 4.71795 12.3233 5.18965 12.9051 5.18965Z" fill="#333333"/>
</svg>
