<svg width="138" height="55" viewBox="0 0 138 55" fill="none" xmlns="http://www.w3.org/2000/svg">
    <path fill-rule="evenodd" clip-rule="evenodd" d="M37.8389 14.8359C36.1998 14.8359 34.8711 16.1647 34.8711 17.8037V45.2556C34.8711 46.8947 36.1998 48.2234 37.8389 48.2234H65.2908C66.9298 48.2234 68.2585 46.8947 68.2585 45.2556V37.0741C67.5758 37.1203 66.9038 37.1104 66.304 37.1015C66.0786 37.0981 65.8634 37.0949 65.6617 37.0949C62.5885 37.0949 60.0972 34.6036 60.0972 31.5304C60.0972 28.4571 62.5885 25.9658 65.6617 25.9658C66.0214 25.9658 66.3934 25.9593 66.7699 25.9526C67.2642 25.944 67.7663 25.9351 68.2585 25.9408V17.8037C68.2585 16.1647 66.9298 14.8359 65.2908 14.8359H37.8389Z" fill="#F58809"/>
    <path fill-rule="evenodd" clip-rule="evenodd" d="M0 17.8037C0 16.1647 1.32872 14.8359 2.96777 14.8359H30.4197C32.0587 14.8359 33.3874 16.1647 33.3874 17.8037V25.9408C32.8952 25.9351 32.3931 25.944 31.8988 25.9526L31.8987 25.9526C31.5222 25.9593 31.1503 25.9658 30.7906 25.9658C27.7174 25.9658 25.2261 28.4571 25.2261 31.5304C25.2261 34.6036 27.7174 37.0949 30.7906 37.0949C30.9923 37.0949 31.2074 37.0981 31.4327 37.1015H31.4329H31.433C32.0327 37.1104 32.7047 37.1203 33.3874 37.0741V45.2556C33.3874 46.8947 32.0587 48.2234 30.4197 48.2234H2.96777C1.32872 48.2234 0 46.8947 0 45.2556V35.2017C1.14426 35.5518 2.44086 35.6103 3.33653 35.6103C5.59023 35.6103 7.41722 33.7834 7.41722 31.5297C7.41722 29.276 5.59023 27.449 3.33653 27.449C2.30587 27.449 1.05458 27.6759 0 28.1378V17.8037Z" fill="#2D949D"/>
    <path d="M26.7119 31.5326C26.7119 29.2789 28.5389 27.4519 30.7926 27.4519C33.0463 27.4519 39.6935 27.0809 38.2102 31.5326C38.9518 35.6133 33.0463 35.6133 30.7926 35.6133C28.5389 35.6133 26.7119 33.7863 26.7119 31.5326Z" fill="#F58809"/>
    <path d="M61.581 31.5326C61.581 29.2789 63.408 27.4519 65.6617 27.4519C67.9154 27.4519 74.5627 27.0809 73.0793 31.5326C73.8209 35.6133 67.9154 35.6133 65.6617 35.6133C63.408 35.6133 61.581 33.7863 61.581 31.5326Z" fill="#E8325B"/>
    <path fill-rule="evenodd" clip-rule="evenodd" d="M81.6234 18.7585C81.6234 21.0122 83.4504 22.8391 85.7041 22.8391C87.9578 22.8391 89.7848 21.0122 89.7848 18.7585C89.7848 17.8305 89.7848 16.2833 89.4999 14.8359H100.164C101.803 14.8359 103.132 16.1647 103.132 17.8037V25.9408C102.639 25.9351 102.137 25.944 101.643 25.9526L101.643 25.9526C101.266 25.9593 100.894 25.9658 100.535 25.9658C97.4616 25.9658 94.9702 28.4571 94.9702 31.5304C94.9702 34.6036 97.4616 37.0949 100.535 37.0949C100.736 37.0949 100.952 37.0981 101.177 37.1015H101.177H101.177C101.777 37.1104 102.449 37.1203 103.132 37.0741V45.2556C103.132 46.8947 101.803 48.2234 100.164 48.2234H72.7119C71.0729 48.2234 69.7441 46.8947 69.7441 45.2556V17.8037C69.7441 16.1647 71.0729 14.8359 72.7119 14.8359H81.7654C81.5993 16.0707 81.6116 17.3609 81.6202 18.2676C81.6219 18.4475 81.6234 18.6122 81.6234 18.7585Z" fill="url(#paint0_linear_173_181)"/>
    <path d="M50.8295 54.7432C48.5758 54.7432 46.7488 52.9162 46.7488 50.6625C46.7488 48.4088 46.3778 41.7615 50.8295 43.2449C54.9102 42.5033 54.9102 48.4088 54.9102 50.6625C54.9102 52.9162 53.0832 54.7432 50.8295 54.7432Z" fill="#F58809"/>
    <path d="M22.1269 24.2191V28.2661H10.4286V24.2191H22.1269ZM13.0845 19.5651H18.472V37.6753C18.472 38.1727 18.5479 38.5605 18.6996 38.8388C18.8514 39.1086 19.0622 39.2983 19.332 39.4079C19.6102 39.5175 19.9306 39.5723 20.2931 39.5723C20.546 39.5723 20.799 39.5512 21.0519 39.509C21.3048 39.4585 21.4988 39.4205 21.6337 39.3952L22.481 43.4042C22.2112 43.4886 21.8318 43.5855 21.3428 43.6951C20.8538 43.8132 20.2594 43.8848 19.5596 43.9101C18.2612 43.9607 17.123 43.7879 16.145 43.3916C15.1754 42.9953 14.4208 42.3799 13.8812 41.5452C13.3416 40.7105 13.076 39.6566 13.0845 38.3835V19.5651Z" fill="white"/>
    <path d="M48.7666 41.7974C46.8022 41.7974 45.1033 41.38 43.67 40.5453C42.2451 39.7022 41.1449 38.5303 40.3692 37.0295C39.5935 35.5204 39.2057 33.7709 39.2057 31.7811C39.2057 29.7745 39.5935 28.0208 40.3692 26.5201C41.1449 25.0109 42.2451 23.839 43.67 23.0043C45.1033 22.1612 46.8022 21.7396 48.7666 21.7396C50.7311 21.7396 52.4258 22.1612 53.8506 23.0043C55.2839 23.839 56.3884 25.0109 57.1641 26.5201C57.9398 28.0208 58.3276 29.7745 58.3276 31.7811C58.3276 33.7709 57.9398 35.5204 57.1641 37.0295C56.3884 38.5303 55.2839 39.7022 53.8506 40.5453C52.4258 41.38 50.7311 41.7974 48.7666 41.7974ZM48.7919 37.6239C49.6856 37.6239 50.4318 37.371 51.0304 36.8651C51.629 36.3508 52.0801 35.651 52.3836 34.7658C52.6956 33.8805 52.8515 32.873 52.8515 31.7432C52.8515 30.6134 52.6956 29.6059 52.3836 28.7206C52.0801 27.8353 51.629 27.1356 51.0304 26.6213C50.4318 26.107 49.6856 25.8498 48.7919 25.8498C47.8898 25.8498 47.131 26.107 46.5155 26.6213C45.9085 27.1356 45.449 27.8353 45.137 28.7206C44.8335 29.6059 44.6817 30.6134 44.6817 31.7432C44.6817 32.873 44.8335 33.8805 45.137 34.7658C45.449 35.651 45.9085 36.3508 46.5155 36.8651C47.131 37.371 47.8898 37.6239 48.7919 37.6239Z" fill="white"/>
    <path d="M81.1551 43.6671C80.6571 43.6671 80.1899 43.6271 79.7534 43.5472C79.323 43.4735 78.9665 43.3782 78.6837 43.2614L79.5689 40.3289C80.03 40.4703 80.445 40.5471 80.8139 40.5594C81.1889 40.5717 81.5116 40.4857 81.7821 40.3012C82.0588 40.1168 82.2832 39.8033 82.4553 39.3606L82.6858 38.7612L77.6047 24.1911H81.736L84.6685 34.5931H84.816L87.7762 24.1911H91.9351L86.4298 39.8863C86.1655 40.6486 85.8058 41.3125 85.3509 41.8781C84.9021 42.4499 84.3334 42.8894 83.6449 43.1968C82.9563 43.5103 82.1264 43.6671 81.1551 43.6671Z" fill="white"/>
    <path d="M8.24147 5.27945H6.66484C6.61988 5.02089 6.53697 4.79185 6.41612 4.59231C6.29528 4.38996 6.14492 4.21853 5.96506 4.07801C5.78519 3.93749 5.58003 3.8321 5.34958 3.76184C5.12194 3.68877 4.87603 3.65223 4.61185 3.65223C4.14252 3.65223 3.72658 3.77027 3.36404 4.00634C3.0015 4.2396 2.71765 4.58247 2.51249 5.03494C2.30733 5.48461 2.20475 6.03404 2.20475 6.68324C2.20475 7.34368 2.30733 7.90014 2.51249 8.35261C2.72046 8.80227 3.00431 9.14233 3.36404 9.37278C3.72658 9.60043 4.14111 9.71425 4.60764 9.71425C4.86619 9.71425 5.10789 9.68052 5.33272 9.61307C5.56036 9.54281 5.76411 9.44023 5.94398 9.30533C6.12665 9.17044 6.27982 9.00462 6.40348 8.80789C6.52994 8.61117 6.61707 8.38634 6.66484 8.1334L8.24147 8.14183C8.18245 8.55215 8.05458 8.93717 7.85785 9.2969C7.66394 9.65663 7.4096 9.97421 7.09483 10.2496C6.78007 10.5222 6.41191 10.7358 5.99035 10.8904C5.56879 11.0422 5.10086 11.118 4.58656 11.118C3.82775 11.118 3.15045 10.9424 2.55465 10.5911C1.95884 10.2398 1.48951 9.73251 1.14664 9.06926C0.803772 8.40601 0.632338 7.61067 0.632338 6.68324C0.632338 5.753 0.805177 4.95766 1.15086 4.29722C1.49653 3.63396 1.96727 3.12669 2.56308 2.77539C3.15888 2.42409 3.83337 2.24844 4.58656 2.24844C5.06714 2.24844 5.51399 2.31589 5.92712 2.45079C6.34024 2.58569 6.7084 2.78382 7.0316 3.04519C7.35479 3.30374 7.62038 3.62132 7.82835 3.99791C8.03912 4.37169 8.17683 4.79887 8.24147 5.27945ZM18.3379 6.68324C18.3379 7.61348 18.1637 8.41022 17.8152 9.07348C17.4695 9.73392 16.9974 10.2398 16.3988 10.5911C15.803 10.9424 15.1271 11.118 14.3711 11.118C13.6151 11.118 12.9378 10.9424 12.3391 10.5911C11.7433 10.237 11.2712 9.7297 10.9227 9.06926C10.577 8.40601 10.4042 7.61067 10.4042 6.68324C10.4042 5.753 10.577 4.95766 10.9227 4.29722C11.2712 3.63396 11.7433 3.12669 12.3391 2.77539C12.9378 2.42409 13.6151 2.24844 14.3711 2.24844C15.1271 2.24844 15.803 2.42409 16.3988 2.77539C16.9974 3.12669 17.4695 3.63396 17.8152 4.29722C18.1637 4.95766 18.3379 5.753 18.3379 6.68324ZM16.7655 6.68324C16.7655 6.02842 16.6629 5.47618 16.4578 5.02651C16.2554 4.57404 15.9744 4.23258 15.6147 4.00213C15.2549 3.76886 14.8404 3.65223 14.3711 3.65223C13.9017 3.65223 13.4872 3.76886 13.1275 4.00213C12.7677 4.23258 12.4853 4.57404 12.2801 5.02651C12.0778 5.47618 11.9766 6.02842 11.9766 6.68324C11.9766 7.33806 12.0778 7.89171 12.2801 8.34418C12.4853 8.79384 12.7677 9.13531 13.1275 9.36857C13.4872 9.59902 13.9017 9.71425 14.3711 9.71425C14.8404 9.71425 15.2549 9.59902 15.6147 9.36857C15.9744 9.13531 16.2554 8.79384 16.4578 8.34418C16.6629 7.89171 16.7655 7.33806 16.7655 6.68324ZM20.7662 11V2.36648H22.3302V9.68895H26.1327V11H20.7662ZM35.8181 6.68324C35.8181 7.61348 35.6439 8.41022 35.2954 9.07348C34.9497 9.73392 34.4776 10.2398 33.8789 10.5911C33.2831 10.9424 32.6072 11.118 31.8512 11.118C31.0953 11.118 30.4179 10.9424 29.8193 10.5911C29.2235 10.237 28.7514 9.7297 28.4029 9.06926C28.0572 8.40601 27.8844 7.61067 27.8844 6.68324C27.8844 5.753 28.0572 4.95766 28.4029 4.29722C28.7514 3.63396 29.2235 3.12669 29.8193 2.77539C30.4179 2.42409 31.0953 2.24844 31.8512 2.24844C32.6072 2.24844 33.2831 2.42409 33.8789 2.77539C34.4776 3.12669 34.9497 3.63396 35.2954 4.29722C35.6439 4.95766 35.8181 5.753 35.8181 6.68324ZM34.2457 6.68324C34.2457 6.02842 34.1431 5.47618 33.938 5.02651C33.7356 4.57404 33.4546 4.23258 33.0948 4.00213C32.7351 3.76886 32.3206 3.65223 31.8512 3.65223C31.3819 3.65223 30.9674 3.76886 30.6076 4.00213C30.2479 4.23258 29.9655 4.57404 29.7603 5.02651C29.558 5.47618 29.4568 6.02842 29.4568 6.68324C29.4568 7.33806 29.558 7.89171 29.7603 8.34418C29.9655 8.79384 30.2479 9.13531 30.6076 9.36857C30.9674 9.59902 31.3819 9.71425 31.8512 9.71425C32.3206 9.71425 32.7351 9.59902 33.0948 9.36857C33.4546 9.13531 33.7356 8.79384 33.938 8.34418C34.1431 7.89171 34.2457 7.33806 34.2457 6.68324ZM38.2464 11V2.36648H41.484C42.1472 2.36648 42.7037 2.4817 43.1534 2.71216C43.6058 2.94261 43.9473 3.2658 44.1778 3.68174C44.411 4.09487 44.5276 4.57685 44.5276 5.12769C44.5276 5.68133 44.4096 6.16191 44.1735 6.56942C43.9403 6.97411 43.596 7.28747 43.1407 7.50949C42.6854 7.7287 42.1262 7.83831 41.4629 7.83831H39.157V6.53991H41.2521C41.64 6.53991 41.9575 6.48651 42.2049 6.37972C42.4522 6.27011 42.6348 6.11132 42.7529 5.90336C42.8737 5.69258 42.9342 5.43402 42.9342 5.12769C42.9342 4.82135 42.8737 4.55999 42.7529 4.34359C42.632 4.12438 42.448 3.95856 42.2006 3.84615C41.9533 3.73092 41.6343 3.67331 41.2437 3.67331H39.8104V11H38.2464ZM42.7065 7.08794L44.8438 11H43.0986L40.9992 7.08794H42.7065ZM50.8112 2.36648H52.7251L55.2882 8.62241H55.3894L57.9524 2.36648H59.8663V11H58.3656V5.06867H58.2855L55.8994 10.9747H54.7781L52.3921 5.05602H52.312V11H50.8112V2.36648ZM61.9289 2.36648H63.6952L65.8073 6.1858H65.8916L68.0036 2.36648H69.7699L66.6293 7.77929V11H65.0695V7.77929L61.9289 2.36648Z" fill="#2F969B"/>
    <mask id="path-11-inside-1_173_181" fill="white">
        <path fill-rule="evenodd" clip-rule="evenodd" d="M104.609 17.8037C104.609 16.1647 105.938 14.8359 107.577 14.8359H135.029C136.668 14.8359 137.997 16.1647 137.997 17.8037V25.9408C137.505 25.9351 137.003 25.944 136.508 25.9526L136.508 25.9526C136.132 25.9593 135.76 25.9658 135.4 25.9658C132.327 25.9658 129.835 28.4571 129.835 31.5304C129.835 34.6036 132.327 37.0949 135.4 37.0949C135.602 37.0949 135.817 37.0981 136.042 37.1015H136.042H136.042C136.642 37.1104 137.314 37.1203 137.997 37.0741V45.2556C137.997 46.8947 136.668 48.2234 135.029 48.2234H124.571C124.652 49.1683 124.652 50.0502 124.652 50.6625C124.652 52.9162 122.825 54.7432 120.572 54.7432C118.318 54.7432 116.491 52.9162 116.491 50.6625C116.491 50.5163 116.489 50.3515 116.488 50.1717C116.483 49.6284 116.476 48.9475 116.507 48.2234H107.577C105.938 48.2234 104.609 46.8947 104.609 45.2556V35.2969C103.119 35.6133 101.494 35.6133 100.533 35.6133C98.2791 35.6133 96.4521 33.7863 96.4521 31.5326C96.4521 29.2789 98.2791 27.4519 100.533 27.4519C100.679 27.4519 100.844 27.4503 101.024 27.4486C101.968 27.4397 103.329 27.4268 104.609 27.6156V17.8037Z"/>
    </mask>
    <path fill-rule="evenodd" clip-rule="evenodd" d="M104.609 17.8037C104.609 16.1647 105.938 14.8359 107.577 14.8359H135.029C136.668 14.8359 137.997 16.1647 137.997 17.8037V25.9408C137.505 25.9351 137.003 25.944 136.508 25.9526L136.508 25.9526C136.132 25.9593 135.76 25.9658 135.4 25.9658C132.327 25.9658 129.835 28.4571 129.835 31.5304C129.835 34.6036 132.327 37.0949 135.4 37.0949C135.602 37.0949 135.817 37.0981 136.042 37.1015H136.042H136.042C136.642 37.1104 137.314 37.1203 137.997 37.0741V45.2556C137.997 46.8947 136.668 48.2234 135.029 48.2234H124.571C124.652 49.1683 124.652 50.0502 124.652 50.6625C124.652 52.9162 122.825 54.7432 120.572 54.7432C118.318 54.7432 116.491 52.9162 116.491 50.6625C116.491 50.5163 116.489 50.3515 116.488 50.1717C116.483 49.6284 116.476 48.9475 116.507 48.2234H107.577C105.938 48.2234 104.609 46.8947 104.609 45.2556V35.2969C103.119 35.6133 101.494 35.6133 100.533 35.6133C98.2791 35.6133 96.4521 33.7863 96.4521 31.5326C96.4521 29.2789 98.2791 27.4519 100.533 27.4519C100.679 27.4519 100.844 27.4503 101.024 27.4486C101.968 27.4397 103.329 27.4268 104.609 27.6156V17.8037Z" fill="white"/>
    <path d="M137.997 25.9408L137.988 26.6827L138.739 26.6913V25.9408H137.997ZM136.508 25.9526L136.495 25.2107L136.485 25.2111L136.508 25.9526ZM136.508 25.9526L136.521 26.6945L136.531 26.6942L136.508 25.9526ZM136.042 37.1015L136.031 37.8434H136.042V37.1015ZM136.042 37.1015L136.053 36.3595H136.042V37.1015ZM137.997 37.0741H138.739V36.2802L137.947 36.3338L137.997 37.0741ZM124.571 48.2234V47.4814H123.762L123.831 48.2874L124.571 48.2234ZM116.488 50.1717L117.23 50.1647L116.488 50.1717ZM116.507 48.2234L117.249 48.2555L117.282 47.4814H116.507V48.2234ZM104.609 35.2969H105.351V34.3809L104.455 34.5711L104.609 35.2969ZM96.4521 31.5326H97.1941H96.4521ZM101.024 27.4486L101.017 26.7067H101.017L101.024 27.4486ZM104.609 27.6156L104.501 28.3496L105.351 28.475V27.6156H104.609ZM107.577 14.094C105.528 14.094 103.867 15.7549 103.867 17.8037H105.351C105.351 16.5744 106.348 15.5779 107.577 15.5779V14.094ZM135.029 14.094H107.577V15.5779H135.029V14.094ZM138.739 17.8037C138.739 15.7549 137.078 14.094 135.029 14.094V15.5779C136.258 15.5779 137.255 16.5744 137.255 17.8037H138.739ZM138.739 25.9408V17.8037H137.255V25.9408H138.739ZM136.521 26.6945C137.017 26.6858 137.509 26.6772 137.988 26.6827L138.005 25.1989C137.501 25.1931 136.988 25.2022 136.495 25.2108L136.521 26.6945ZM136.531 26.6942L136.531 26.6942L136.485 25.2111L136.485 25.2111L136.531 26.6942ZM135.4 26.7077C135.767 26.7077 136.146 26.7011 136.521 26.6945L136.495 25.2108C136.117 25.2174 135.752 25.2238 135.4 25.2238V26.7077ZM130.577 31.5304C130.577 28.8669 132.737 26.7077 135.4 26.7077V25.2238C131.917 25.2238 129.094 28.0474 129.094 31.5304H130.577ZM135.4 36.353C132.737 36.353 130.577 34.1938 130.577 31.5304H129.094C129.094 35.0134 131.917 37.8369 135.4 37.8369V36.353ZM136.053 36.3596C135.829 36.3563 135.608 36.353 135.4 36.353V37.8369C135.595 37.8369 135.805 37.84 136.031 37.8433L136.053 36.3596ZM136.042 36.3595H136.042V37.8434H136.042V36.3595ZM136.042 36.3595H136.042V37.8434H136.042V36.3595ZM137.947 36.3338C137.299 36.3777 136.657 36.3686 136.053 36.3596L136.031 37.8433C136.627 37.8522 137.329 37.863 138.047 37.8143L137.947 36.3338ZM138.739 45.2556V37.0741H137.255V45.2556H138.739ZM135.029 48.9653C137.078 48.9653 138.739 47.3044 138.739 45.2556H137.255C137.255 46.4849 136.258 47.4814 135.029 47.4814V48.9653ZM124.571 48.9653H135.029V47.4814H124.571V48.9653ZM125.394 50.6625C125.394 50.0511 125.395 49.1399 125.31 48.1594L123.831 48.2874C123.91 49.1966 123.91 50.0492 123.91 50.6625H125.394ZM120.572 55.4851C123.235 55.4851 125.394 53.326 125.394 50.6625H123.91C123.91 52.5064 122.416 54.0013 120.572 54.0013V55.4851ZM115.749 50.6625C115.749 53.326 117.908 55.4851 120.572 55.4851V54.0013C118.728 54.0013 117.233 52.5064 117.233 50.6625H115.749ZM115.746 50.1787C115.748 50.3595 115.749 50.5205 115.749 50.6625H117.233C117.233 50.512 117.231 50.3435 117.23 50.1647L115.746 50.1787ZM115.766 48.1913C115.734 48.9375 115.741 49.6368 115.746 50.1787L117.23 50.1647C117.224 49.6201 117.218 48.9575 117.249 48.2555L115.766 48.1913ZM107.577 48.9653H116.507V47.4814H107.577V48.9653ZM103.867 45.2556C103.867 47.3044 105.528 48.9653 107.577 48.9653V47.4814C106.348 47.4814 105.351 46.4849 105.351 45.2556H103.867ZM103.867 35.2969V45.2556H105.351V35.2969H103.867ZM100.533 36.3552C101.485 36.3552 103.186 36.3576 104.763 36.0226L104.455 34.5711C103.052 34.869 101.502 34.8713 100.533 34.8713V36.3552ZM95.7102 31.5326C95.7102 34.1961 97.8694 36.3552 100.533 36.3552V34.8713C98.6889 34.8713 97.1941 33.3765 97.1941 31.5326H95.7102ZM100.533 26.71C97.8694 26.71 95.7102 28.8691 95.7102 31.5326H97.1941C97.1941 29.6887 98.6889 28.1938 100.533 28.1938V26.71ZM101.017 26.7067C100.836 26.7084 100.675 26.71 100.533 26.71V28.1938C100.683 28.1938 100.852 28.1922 101.031 28.1905L101.017 26.7067ZM104.718 26.8816C103.371 26.683 101.954 26.6978 101.017 26.7067L101.031 28.1905C101.983 28.1815 103.287 28.1705 104.501 28.3496L104.718 26.8816ZM103.867 17.8037V27.6156H105.351V17.8037H103.867Z" fill="#333333" mask="url(#path-11-inside-1_173_181)"/>
    <path d="M127.379 27.5318L122.447 27.8353C122.362 27.4138 122.181 27.0344 121.903 26.6971C121.625 26.3515 121.258 26.0774 120.803 25.8751C120.356 25.6643 119.82 25.5589 119.196 25.5589C118.362 25.5589 117.658 25.736 117.084 26.0901C116.511 26.4358 116.224 26.8995 116.224 27.4812C116.224 27.945 116.41 28.337 116.781 28.6574C117.152 28.9778 117.788 29.2349 118.691 29.4288L122.206 30.1371C124.095 30.5249 125.503 31.1488 126.43 32.0088C127.358 32.8688 127.822 33.9985 127.822 35.3981C127.822 36.6712 127.446 37.7883 126.696 38.7495C125.954 39.7107 124.934 40.461 123.635 41.0006C122.346 41.5318 120.857 41.7974 119.171 41.7974C116.6 41.7974 114.551 41.262 113.025 40.1912C111.507 39.112 110.618 37.645 110.356 35.7902L115.655 35.5119C115.816 36.296 116.203 36.8946 116.819 37.3078C117.434 37.7125 118.223 37.9148 119.184 37.9148C120.128 37.9148 120.887 37.7335 121.46 37.371C122.042 37 122.337 36.5237 122.346 35.9419C122.337 35.4529 122.131 35.0524 121.726 34.7405C121.321 34.4201 120.697 34.1756 119.854 34.007L116.49 33.3367C114.593 32.9573 113.181 32.2997 112.253 31.3638C111.334 30.4279 110.875 29.2349 110.875 27.7848C110.875 26.5369 111.212 25.462 111.887 24.5598C112.57 23.6577 113.526 22.9621 114.757 22.4731C115.997 21.9841 117.447 21.7396 119.108 21.7396C121.561 21.7396 123.492 22.2581 124.9 23.2952C126.317 24.3322 127.143 25.7444 127.379 27.5318Z" fill="white"/>
    <path d="M127.379 27.5318L127.41 28.0309L127.945 27.9979L127.875 27.4664L127.379 27.5318ZM122.447 27.8353L121.956 27.9334L122.042 28.3612L122.477 28.3344L122.447 27.8353ZM121.903 26.6971L121.513 27.0107L121.517 27.0153L121.903 26.6971ZM120.803 25.8751L120.589 26.3274L120.6 26.332L120.803 25.8751ZM117.084 26.0901L117.343 26.5183L117.347 26.5155L117.084 26.0901ZM116.781 28.6574L116.454 29.0358H116.454L116.781 28.6574ZM118.691 29.4288L118.586 29.9177L118.592 29.919L118.691 29.4288ZM122.206 30.1371L122.307 29.6473L122.305 29.6469L122.206 30.1371ZM126.43 32.0088L126.09 32.3754L126.43 32.0088ZM126.696 38.7495L126.302 38.4418L126.3 38.444L126.696 38.7495ZM123.635 41.0006L123.826 41.463L123.827 41.4623L123.635 41.0006ZM113.025 40.1912L112.735 40.5987L112.738 40.6005L113.025 40.1912ZM110.356 35.7902L110.33 35.2908L109.785 35.3195L109.861 35.8599L110.356 35.7902ZM115.655 35.5119L116.145 35.4118L116.059 34.99L115.629 35.0126L115.655 35.5119ZM116.819 37.3078L116.54 37.7229L116.544 37.7255L116.819 37.3078ZM121.46 37.371L121.727 37.7936L121.729 37.7926L121.46 37.371ZM122.346 35.9419L122.845 35.9492L122.846 35.9412L122.845 35.9333L122.346 35.9419ZM121.726 34.7405L121.415 35.1325L121.421 35.1365L121.726 34.7405ZM119.854 34.007L119.952 33.5167L119.952 33.5166L119.854 34.007ZM116.49 33.3367L116.392 33.827L116.392 33.827L116.49 33.3367ZM112.253 31.3638L111.897 31.7141L111.898 31.7157L112.253 31.3638ZM111.887 24.5598L111.488 24.258L111.486 24.2604L111.887 24.5598ZM114.757 22.4731L114.574 22.008L114.573 22.0084L114.757 22.4731ZM124.9 23.2952L124.604 23.6978L124.605 23.6986L124.9 23.2952ZM127.348 27.0328L122.416 27.3363L122.477 28.3344L127.41 28.0309L127.348 27.0328ZM122.937 27.7373C122.836 27.2334 122.618 26.7787 122.289 26.3789L121.517 27.0153C121.744 27.2901 121.889 27.5941 121.956 27.9334L122.937 27.7373ZM122.292 26.3836C121.958 25.9687 121.525 25.6488 121.006 25.4182L120.6 26.332C120.991 26.5061 121.291 26.7342 121.513 27.0106L122.292 26.3836ZM121.016 25.4229C120.487 25.1735 119.875 25.0589 119.196 25.0589V26.0589C119.765 26.0589 120.224 26.1551 120.589 26.3273L121.016 25.4229ZM119.196 25.0589C118.291 25.0589 117.491 25.2514 116.822 25.6647L117.347 26.5155C117.825 26.2206 118.432 26.0589 119.196 26.0589V25.0589ZM116.826 25.6619C116.13 26.0819 115.724 26.695 115.724 27.4812H116.724C116.724 27.104 116.893 26.7897 117.343 26.5183L116.826 25.6619ZM115.724 27.4812C115.724 28.0994 115.98 28.6266 116.454 29.0358L117.108 28.279C116.84 28.0474 116.724 27.7905 116.724 27.4812H115.724ZM116.454 29.0358C116.923 29.4407 117.662 29.7191 118.586 29.9177L118.796 28.94C117.915 28.7507 117.381 28.5148 117.108 28.279L116.454 29.0358ZM118.592 29.919L122.108 30.6272L122.305 29.6469L118.789 28.9387L118.592 29.919ZM122.106 30.6268C123.948 31.0052 125.256 31.602 126.09 32.3754L126.77 31.6421C125.75 30.6956 124.242 30.0446 122.307 29.6473L122.106 30.6268ZM126.09 32.3754C126.904 33.1301 127.322 34.1212 127.322 35.3981H128.322C128.322 33.8758 127.811 32.6074 126.77 31.6421L126.09 32.3754ZM127.322 35.3981C127.322 36.565 126.98 37.5726 126.302 38.4418L127.09 39.0572C127.912 38.0041 128.322 36.7774 128.322 35.3981H127.322ZM126.3 38.444C125.619 39.326 124.674 40.0274 123.444 40.5389L123.827 41.4623C125.193 40.8947 126.289 40.0953 127.092 39.055L126.3 38.444ZM123.445 40.5383C122.227 41.04 120.805 41.2974 119.171 41.2974V42.2974C120.909 42.2974 122.464 42.0236 123.826 41.463L123.445 40.5383ZM119.171 41.2974C116.664 41.2974 114.727 40.7751 113.312 39.7819L112.738 40.6005C114.374 41.7489 116.535 42.2974 119.171 42.2974V41.2974ZM113.315 39.7838C111.91 38.7847 111.094 37.4402 110.851 35.7204L109.861 35.8599C110.142 37.8499 111.105 39.4394 112.735 40.5987L113.315 39.7838ZM110.383 36.2895L115.682 36.0112L115.629 35.0126L110.33 35.2908L110.383 36.2895ZM115.165 35.612C115.35 36.5135 115.806 37.2304 116.54 37.7229L117.098 36.8926C116.6 36.5589 116.281 36.0786 116.145 35.4118L115.165 35.612ZM116.544 37.7255C117.263 38.198 118.154 38.4148 119.184 38.4148V37.4148C118.291 37.4148 117.606 37.2269 117.094 36.89L116.544 37.7255ZM119.184 38.4148C120.187 38.4148 121.049 38.2229 121.727 37.7936L121.193 36.9484C120.725 37.2442 120.069 37.4148 119.184 37.4148V38.4148ZM121.729 37.7926C122.422 37.3506 122.834 36.7323 122.845 35.9492L121.846 35.9347C121.84 36.315 121.662 36.6495 121.191 36.9494L121.729 37.7926ZM122.845 35.9333C122.834 35.2846 122.55 34.7444 122.031 34.3445L121.421 35.1365C121.711 35.3604 121.84 35.6212 121.846 35.9505L122.845 35.9333ZM122.036 34.3485C121.541 33.9566 120.827 33.6917 119.952 33.5167L119.756 34.4973C120.567 34.6594 121.101 34.8835 121.415 35.1325L122.036 34.3485ZM119.952 33.5166L116.588 32.8463L116.392 33.827L119.756 34.4973L119.952 33.5166ZM116.588 32.8464C114.745 32.4779 113.44 31.8511 112.609 31.0118L111.898 31.7157C112.921 32.7482 114.441 33.4367 116.392 33.827L116.588 32.8464ZM112.61 31.0135C111.793 30.1814 111.375 29.119 111.375 27.7848H110.375C110.375 29.3508 110.876 30.6745 111.897 31.7141L112.61 31.0135ZM111.375 27.7848C111.375 26.6326 111.684 25.6656 112.287 24.8592L111.486 24.2604C110.74 25.2583 110.375 26.4413 110.375 27.7848H111.375ZM112.285 24.8616C112.904 24.044 113.781 23.3989 114.942 22.9378L114.573 22.0084C113.272 22.5253 112.235 23.2714 111.488 24.2581L112.285 24.8616ZM114.941 22.9382C116.109 22.4772 117.495 22.2396 119.108 22.2396V21.2396C117.399 21.2396 115.884 21.491 114.574 22.008L114.941 22.9382ZM119.108 22.2396C121.497 22.2396 123.31 22.745 124.604 23.6977L125.197 22.8926C123.674 21.7713 121.626 21.2396 119.108 21.2396V22.2396ZM124.605 23.6986C125.908 24.6526 126.664 25.941 126.883 27.5973L127.875 27.4664C127.621 25.5478 126.725 24.0118 125.196 22.8917L124.605 23.6986Z" fill="#333333"/>
    <defs>
        <linearGradient id="paint0_linear_173_181" x1="82.002" y1="28" x2="105.002" y2="60.5" gradientUnits="userSpaceOnUse">
            <stop offset="0.0796823" stop-color="#E8325B"/>
            <stop offset="1" stop-color="#3C3C3C"/>
        </linearGradient>
    </defs>
</svg>
