<svg width="13" height="17" viewBox="0 0 13 17" fill="none" xmlns="http://www.w3.org/2000/svg">
    <path d="M5.34372 11.2439C4.90509 13.5841 4.36919 15.8279 2.78174 17C2.29186 13.4626 3.50138 10.806 4.06273 7.98573C3.10517 6.3455 4.17794 3.04513 6.19783 3.8586C8.68312 4.85867 4.04576 9.95566 7.15898 10.5922C10.4096 11.2566 11.7363 4.85436 9.72096 2.77253C6.80846 -0.233997 1.24324 2.7038 1.92764 7.00823C2.09408 8.06044 3.16294 8.37985 2.35485 9.83181C0.490641 9.41146 -0.0654897 7.916 0.00598472 5.92216C0.121192 2.65831 2.88846 0.373285 5.66422 0.057193C9.1743 -0.342571 12.4687 1.36805 12.9236 4.72752C13.436 8.51897 11.3391 12.6252 7.58587 12.33C6.56825 12.2497 6.14137 11.7367 5.34372 11.2439Z" fill="#333333"/>
</svg>
