<svg width="255" height="101" viewBox="0 0 255 101" fill="none" xmlns="http://www.w3.org/2000/svg">
    <path fill-rule="evenodd" clip-rule="evenodd" d="M69.8192 27.3728C66.7952 27.3728 64.3438 29.8243 64.3438 32.8483V83.4964C64.3438 86.5205 66.7952 88.9719 69.8192 88.9719H120.467C123.491 88.9719 125.943 86.5205 125.943 83.4964V68.4026C124.684 68.4879 123.444 68.4695 122.338 68.4531C121.922 68.4469 121.525 68.441 121.153 68.441C115.483 68.441 110.886 63.8445 110.886 58.1745C110.886 52.5044 115.483 47.908 121.153 47.908C121.816 47.908 122.503 47.8959 123.197 47.8837C124.109 47.8677 125.035 47.8514 125.943 47.8618V32.8483C125.943 29.8243 123.491 27.3728 120.467 27.3728H69.8192Z" fill="#F58809"/>
    <path fill-rule="evenodd" clip-rule="evenodd" d="M0 32.8483C0 29.8243 2.45145 27.3728 5.47548 27.3728H56.1236C59.1477 27.3728 61.5991 29.8243 61.5991 32.8483V47.8618C60.6912 47.8514 59.7652 47.8677 58.8535 47.8837C58.1588 47.8959 57.4725 47.908 56.809 47.908C51.1389 47.908 46.5425 52.5044 46.5425 58.1745C46.5425 63.8445 51.1389 68.441 56.809 68.441C57.1811 68.441 57.578 68.4469 57.9938 68.4531H57.9939C59.1002 68.4695 60.3398 68.4879 61.5991 68.4026V83.4964C61.5991 86.5205 59.1477 88.9719 56.1236 88.9719H5.47548C2.45145 88.9719 0 86.5205 0 83.4964V64.9489C2.1101 65.5936 4.50018 65.7016 6.15158 65.7016C10.3096 65.7016 13.6804 62.3308 13.6804 58.1728C13.6804 54.0148 10.3096 50.644 6.15158 50.644C4.25142 50.644 1.94478 51.0621 0 51.9129V32.8483Z" fill="#2D949D"/>
    <path d="M49.2784 58.177C49.2784 54.019 52.6492 50.6482 56.8072 50.6482C60.9652 50.6482 73.2293 49.9638 70.4925 58.177C71.8608 65.7058 60.9652 65.7058 56.8072 65.7058C52.6492 65.7058 49.2784 62.3351 49.2784 58.177Z" fill="#F58809"/>
    <path d="M113.622 58.177C113.622 54.019 116.993 50.6482 121.151 50.6482C125.309 50.6482 137.573 49.9638 134.836 58.177C136.205 65.7058 125.309 65.7058 121.151 65.7058C116.993 65.7058 113.622 62.3351 113.622 58.177Z" fill="#E8325B"/>
    <path fill-rule="evenodd" clip-rule="evenodd" d="M150.589 34.6094C150.589 38.7674 153.96 42.1382 158.118 42.1382C162.276 42.1382 165.646 38.7674 165.646 34.6094C165.646 32.8975 165.646 30.0437 165.121 27.3738H184.799C187.823 27.3738 190.275 29.8252 190.275 32.8493V47.8628C189.367 47.8524 188.441 47.8687 187.529 47.8847C186.835 47.8969 186.148 47.9089 185.485 47.9089C179.815 47.9089 175.218 52.5054 175.218 58.1755C175.218 63.8455 179.815 68.442 185.485 68.442C185.857 68.442 186.254 68.4479 186.67 68.454H186.67C187.776 68.4705 189.016 68.4888 190.275 68.4036V83.4974C190.275 86.5214 187.823 88.9729 184.799 88.9729H134.151C131.127 88.9729 128.676 86.5214 128.676 83.4974V32.8493C128.676 29.8252 131.127 27.3738 134.151 27.3738H150.851C150.544 29.6515 150.567 32.0312 150.583 33.7039C150.586 34.0356 150.589 34.3396 150.589 34.6094Z" fill="url(#paint0_linear_223_788)"/>
    <path d="M93.772 101C89.614 101 86.2432 97.6291 86.2432 93.4711C86.2432 89.3131 85.5588 77.049 93.772 79.7858C101.301 78.4175 101.301 89.3131 101.301 93.4711C101.301 97.6291 97.93 101 93.772 101Z" fill="#F58809"/>
    <path d="M40.8148 45.9545V53.421H19.2318V45.9545H40.8148ZM24.1317 37.3679H34.0716V70.7808C34.0716 71.6985 34.2116 72.4141 34.4916 72.9274C34.7716 73.4252 35.1605 73.7752 35.6582 73.9774C36.1716 74.1796 36.7627 74.2807 37.4315 74.2807C37.8982 74.2807 38.3649 74.2418 38.8315 74.1641C39.2982 74.0707 39.656 74.0007 39.9048 73.9541L41.4681 81.3506C40.9704 81.5062 40.2704 81.6851 39.3682 81.8873C38.466 82.1051 37.3693 82.2373 36.0782 82.2839C33.6827 82.3773 31.5827 82.0584 29.7783 81.3273C27.9895 80.5962 26.5973 79.4606 25.6017 77.9207C24.6062 76.3807 24.1162 74.4363 24.1317 72.0874V37.3679Z" fill="white"/>
    <path d="M89.98 78.386C86.3556 78.386 83.2212 77.616 80.5768 76.0761C77.948 74.5205 75.918 72.3583 74.4869 69.5895C73.0558 66.8051 72.3403 63.5773 72.3403 59.9063C72.3403 56.2041 73.0558 52.9686 74.4869 50.1998C75.918 47.4154 77.948 45.2532 80.5768 43.7132C83.2212 42.1577 86.3556 41.3799 89.98 41.3799C93.6044 41.3799 96.731 42.1577 99.3599 43.7132C102.004 45.2532 104.042 47.4154 105.473 50.1998C106.904 52.9686 107.62 56.2041 107.62 59.9063C107.62 63.5773 106.904 66.8051 105.473 69.5895C104.042 72.3583 102.004 74.5205 99.3599 76.0761C96.731 77.616 93.6044 78.386 89.98 78.386ZM90.0267 70.6861C91.6756 70.6861 93.0522 70.2195 94.1566 69.2862C95.2611 68.3373 96.0933 67.0462 96.6533 65.4129C97.2288 63.7796 97.5166 61.9207 97.5166 59.8363C97.5166 57.7519 97.2288 55.893 96.6533 54.2597C96.0933 52.6264 95.2611 51.3353 94.1566 50.3864C93.0522 49.4376 91.6756 48.9631 90.0267 48.9631C88.3623 48.9631 86.9623 49.4376 85.8267 50.3864C84.7068 51.3353 83.859 52.6264 83.2835 54.2597C82.7235 55.893 82.4435 57.7519 82.4435 59.8363C82.4435 61.9207 82.7235 63.7796 83.2835 65.4129C83.859 67.0462 84.7068 68.3373 85.8267 69.2862C86.9623 70.2195 88.3623 70.6861 90.0267 70.6861Z" fill="white"/>
    <path d="M149.734 80.4405C148.815 80.4405 147.953 80.3668 147.148 80.2193C146.354 80.0832 145.696 79.9074 145.174 79.6919L146.808 74.2815C147.658 74.5424 148.424 74.6842 149.105 74.7069C149.796 74.7296 150.392 74.5708 150.891 74.2305C151.401 73.8902 151.815 73.3118 152.133 72.4951L152.558 71.3892L143.184 44.5077H150.806L156.216 63.6991H156.489L161.95 44.5077H169.623L159.466 73.4649C158.978 74.8714 158.315 76.0963 157.475 77.1398C156.647 78.1947 155.598 79.0057 154.328 79.5728C153.057 80.1513 151.526 80.4405 149.734 80.4405Z" fill="white"/>
    <path d="M15.2053 10.4457H12.2965C12.2135 9.96868 12.0606 9.54609 11.8376 9.17795C11.6146 8.80462 11.3372 8.48833 11.0054 8.22907C10.6736 7.96982 10.295 7.77537 9.86986 7.64575C9.44986 7.51093 8.99617 7.44353 8.50877 7.44353C7.64285 7.44353 6.87546 7.6613 6.20658 8.09685C5.5377 8.52722 5.014 9.1598 4.63549 9.9946C4.25698 10.8242 4.06772 11.8379 4.06772 13.0357C4.06772 14.2542 4.25698 15.2808 4.63549 16.1156C5.01919 16.9452 5.54288 17.5726 6.20658 17.9978C6.87546 18.4178 7.64026 18.6278 8.50099 18.6278C8.97802 18.6278 9.42394 18.5656 9.83875 18.4411C10.2587 18.3115 10.6347 18.1223 10.9665 17.8734C11.3035 17.6245 11.5861 17.3186 11.8143 16.9556C12.0476 16.5927 12.2083 16.1778 12.2965 15.7112L15.2053 15.7267C15.0965 16.4838 14.8605 17.1941 14.4976 17.8578C14.1398 18.5215 13.6705 19.1074 13.0898 19.6156C12.5091 20.1185 11.8298 20.5126 11.0521 20.7978C10.2743 21.0778 9.41098 21.2178 8.4621 21.2178C7.06212 21.2178 5.81251 20.8937 4.71327 20.2456C3.61402 19.5974 2.74811 18.6615 2.11553 17.4378C1.48294 16.2141 1.16665 14.7468 1.16665 13.0357C1.16665 11.3194 1.48553 9.85201 2.1233 8.63351C2.76107 7.40983 3.62958 6.47391 4.72882 5.82577C5.82806 5.17763 7.07249 4.85357 8.4621 4.85357C9.34875 4.85357 10.1732 4.97801 10.9354 5.22689C11.6976 5.47578 12.3769 5.84133 12.9731 6.32354C13.5694 6.80057 14.0594 7.38649 14.4431 8.0813C14.832 8.77092 15.0861 9.55905 15.2053 10.4457ZM33.8331 13.0357C33.8331 14.7519 33.5116 16.2219 32.8687 17.4456C32.2309 18.6641 31.3598 19.5974 30.2554 20.2456C29.1561 20.8937 27.9091 21.2178 26.5143 21.2178C25.1195 21.2178 23.8699 20.8937 22.7655 20.2456C21.6662 19.5922 20.7951 18.6563 20.1522 17.4378C19.5144 16.2141 19.1955 14.7468 19.1955 13.0357C19.1955 11.3194 19.5144 9.85201 20.1522 8.63351C20.7951 7.40983 21.6662 6.47391 22.7655 5.82577C23.8699 5.17763 25.1195 4.85357 26.5143 4.85357C27.9091 4.85357 29.1561 5.17763 30.2554 5.82577C31.3598 6.47391 32.2309 7.40983 32.8687 8.63351C33.5116 9.85201 33.8331 11.3194 33.8331 13.0357ZM30.932 13.0357C30.932 11.8275 30.7428 10.8087 30.3642 9.97905C29.9909 9.14424 29.4724 8.51425 28.8087 8.08907C28.145 7.65871 27.3802 7.44353 26.5143 7.44353C25.6484 7.44353 24.8836 7.65871 24.2199 8.08907C23.5562 8.51425 23.0351 9.14424 22.6566 9.97905C22.2832 10.8087 22.0966 11.8275 22.0966 13.0357C22.0966 14.2438 22.2832 15.2653 22.6566 16.1001C23.0351 16.9297 23.5562 17.5597 24.2199 17.99C24.8836 18.4152 25.6484 18.6278 26.5143 18.6278C27.3802 18.6278 28.145 18.4152 28.8087 17.99C29.4724 17.5597 29.9909 16.9297 30.3642 16.1001C30.7428 15.2653 30.932 14.2438 30.932 13.0357ZM38.3132 21V5.07134H41.1988V18.5811H48.2142V21H38.3132ZM66.0836 13.0357C66.0836 14.7519 65.7622 16.2219 65.1192 17.4456C64.4814 18.6641 63.6103 19.5974 62.5059 20.2456C61.4067 20.8937 60.1597 21.2178 58.7649 21.2178C57.3701 21.2178 56.1204 20.8937 55.016 20.2456C53.9168 19.5922 53.0457 18.6563 52.4027 17.4378C51.765 16.2141 51.4461 14.7468 51.4461 13.0357C51.4461 11.3194 51.765 9.85201 52.4027 8.63351C53.0457 7.40983 53.9168 6.47391 55.016 5.82577C56.1204 5.17763 57.3701 4.85357 58.7649 4.85357C60.1597 4.85357 61.4067 5.17763 62.5059 5.82577C63.6103 6.47391 64.4814 7.40983 65.1192 8.63351C65.7622 9.85201 66.0836 11.3194 66.0836 13.0357ZM63.1826 13.0357C63.1826 11.8275 62.9933 10.8087 62.6148 9.97905C62.2415 9.14424 61.723 8.51425 61.0593 8.08907C60.3956 7.65871 59.6308 7.44353 58.7649 7.44353C57.8989 7.44353 57.1341 7.65871 56.4704 8.08907C55.8068 8.51425 55.2856 9.14424 54.9071 9.97905C54.5338 10.8087 54.3471 11.8275 54.3471 13.0357C54.3471 14.2438 54.5338 15.2653 54.9071 16.1001C55.2856 16.9297 55.8068 17.5597 56.4704 17.99C57.1341 18.4152 57.8989 18.6278 58.7649 18.6278C59.6308 18.6278 60.3956 18.4152 61.0593 17.99C61.723 17.5597 62.2415 16.9297 62.6148 16.1001C62.9933 15.2653 63.1826 14.2438 63.1826 13.0357ZM70.5638 21V5.07134H76.5371C77.7607 5.07134 78.7874 5.28393 79.617 5.70911C80.4518 6.13429 81.0818 6.73058 81.507 7.49797C81.9374 8.26018 82.1525 9.14943 82.1525 10.1657C82.1525 11.1872 81.9348 12.0738 81.4992 12.8257C81.0688 13.5723 80.4337 14.1505 79.5937 14.5601C78.7537 14.9645 77.7219 15.1668 76.4982 15.1668H72.2438V12.7712H76.1093C76.8248 12.7712 77.4107 12.6727 77.867 12.4757C78.3233 12.2735 78.6604 11.9805 78.8781 11.5968C79.1011 11.2079 79.2126 10.7309 79.2126 10.1657C79.2126 9.60053 79.1011 9.11832 78.8781 8.71907C78.6552 8.31463 78.3156 8.00871 77.8593 7.8013C77.403 7.58871 76.8145 7.48242 76.0937 7.48242H73.4493V21H70.5638ZM78.7926 13.7823L82.7359 21H79.5159L75.6426 13.7823H78.7926ZM93.7456 5.07134H97.2767L102.005 16.6134H102.192L106.921 5.07134H110.452V21H107.683V10.0568H107.535L103.133 20.9533H101.064L96.6622 10.0335H96.5145V21H93.7456V5.07134ZM114.257 5.07134H117.516L121.413 12.1179H121.568L125.465 5.07134H128.724L122.93 15.0579V21H120.052V15.0579L114.257 5.07134Z" fill="white"/>
    <mask id="path-11-inside-1_223_788" fill="white">
        <path fill-rule="evenodd" clip-rule="evenodd" d="M193.005 32.8493C193.005 29.8252 195.457 27.3738 198.481 27.3738H249.129C252.153 27.3738 254.604 29.8252 254.604 32.8493V47.8628C253.696 47.8524 252.77 47.8687 251.859 47.8847C251.164 47.8969 250.478 47.9089 249.814 47.9089C244.144 47.9089 239.548 52.5054 239.548 58.1755C239.548 63.8455 244.144 68.442 249.814 68.442C250.186 68.442 250.583 68.4479 250.999 68.454H250.999C252.105 68.4705 253.345 68.4888 254.604 68.4036V83.4974C254.604 86.5214 252.153 88.9729 249.129 88.9729H229.838C229.989 90.7159 229.989 92.3426 229.989 93.4721C229.989 97.6302 226.618 101.001 222.46 101.001C218.302 101.001 214.932 97.6302 214.932 93.4721C214.932 93.2024 214.929 92.8985 214.926 92.5669V92.5666C214.916 91.5645 214.904 90.3086 214.962 88.9729H198.481C195.457 88.9729 193.005 86.5214 193.005 83.4974V65.1225C190.255 65.7066 187.255 65.7066 185.482 65.7066C181.324 65.7066 177.953 62.3359 177.953 58.1779C177.953 54.0198 181.324 50.6491 185.482 50.6491C185.752 50.6491 186.056 50.6462 186.387 50.643H186.387C188.131 50.6265 190.642 50.6027 193.005 50.9514V32.8493Z"/>
    </mask>
    <path fill-rule="evenodd" clip-rule="evenodd" d="M193.005 32.8493C193.005 29.8252 195.457 27.3738 198.481 27.3738H249.129C252.153 27.3738 254.604 29.8252 254.604 32.8493V47.8628C253.696 47.8524 252.77 47.8687 251.859 47.8847C251.164 47.8969 250.478 47.9089 249.814 47.9089C244.144 47.9089 239.548 52.5054 239.548 58.1755C239.548 63.8455 244.144 68.442 249.814 68.442C250.186 68.442 250.583 68.4479 250.999 68.454H250.999C252.105 68.4705 253.345 68.4888 254.604 68.4036V83.4974C254.604 86.5214 252.153 88.9729 249.129 88.9729H229.838C229.989 90.7159 229.989 92.3426 229.989 93.4721C229.989 97.6302 226.618 101.001 222.46 101.001C218.302 101.001 214.932 97.6302 214.932 93.4721C214.932 93.2024 214.929 92.8985 214.926 92.5669V92.5666C214.916 91.5645 214.904 90.3086 214.962 88.9729H198.481C195.457 88.9729 193.005 86.5214 193.005 83.4974V65.1225C190.255 65.7066 187.255 65.7066 185.482 65.7066C181.324 65.7066 177.953 62.3359 177.953 58.1779C177.953 54.0198 181.324 50.6491 185.482 50.6491C185.752 50.6491 186.056 50.6462 186.387 50.643H186.387C188.131 50.6265 190.642 50.6027 193.005 50.9514V32.8493Z" fill="white"/>
    <path d="M254.604 47.8628L254.589 49.2316L255.973 49.2474V47.8628H254.604ZM251.859 47.8847L251.835 46.516L251.859 47.8847ZM250.999 68.454L250.979 69.8228L250.989 69.8229H250.999V68.454ZM250.999 68.454L251.019 67.0853L251.009 67.0852H250.999V68.454ZM254.604 68.4036H255.973V66.9389L254.512 67.0378L254.604 68.4036ZM229.838 88.9729V87.604H228.346L228.474 89.091L229.838 88.9729ZM214.926 92.5669H213.557L213.557 92.5798L214.926 92.5669ZM214.926 92.5666H216.294L216.294 92.5536L214.926 92.5666ZM214.962 88.9729L216.33 89.0321L216.391 87.604H214.962V88.9729ZM193.005 65.1225H194.374V63.4323L192.721 63.7835L193.005 65.1225ZM186.387 50.643V49.2741L186.374 49.2742L186.387 50.643ZM186.387 50.643V52.012L186.4 52.0119L186.387 50.643ZM193.005 50.9514L192.805 52.3056L194.374 52.537V50.9514H193.005ZM198.481 26.0049C194.701 26.0049 191.636 29.0692 191.636 32.8493H194.374C194.374 30.5812 196.213 28.7426 198.481 28.7426V26.0049ZM249.129 26.0049H198.481V28.7426H249.129V26.0049ZM255.973 32.8493C255.973 29.0692 252.909 26.0049 249.129 26.0049V28.7426C251.397 28.7426 253.235 30.5812 253.235 32.8493H255.973ZM255.973 47.8628V32.8493H253.235V47.8628H255.973ZM251.883 49.2533C252.798 49.2373 253.704 49.2214 254.589 49.2316L254.62 46.494C253.689 46.4834 252.743 46.5001 251.835 46.516L251.883 49.2533ZM249.814 49.2778C250.492 49.2778 251.19 49.2655 251.883 49.2533L251.835 46.516C251.138 46.5283 250.463 46.5401 249.814 46.5401V49.2778ZM240.916 58.1755C240.916 53.2614 244.9 49.2778 249.814 49.2778V46.5401C243.388 46.5401 238.179 51.7494 238.179 58.1755H240.916ZM249.814 67.0731C244.9 67.0731 240.916 63.0895 240.916 58.1755H238.179C238.179 64.6015 243.388 69.8108 249.814 69.8108V67.0731ZM251.019 67.0853C250.606 67.0792 250.198 67.0731 249.814 67.0731V69.8108C250.174 69.8108 250.56 69.8166 250.979 69.8228L251.019 67.0853ZM250.999 67.0852H250.999V69.8229H250.999V67.0852ZM254.512 67.0378C253.317 67.1187 252.133 67.1018 251.019 67.0853L250.979 69.8228C252.078 69.8391 253.372 69.859 254.697 69.7693L254.512 67.0378ZM255.973 83.4974V68.4036H253.235V83.4974H255.973ZM249.129 90.3418C252.909 90.3418 255.973 87.2774 255.973 83.4974H253.235C253.235 85.7654 251.397 87.604 249.129 87.604V90.3418ZM229.838 90.3418H249.129V87.604H229.838V90.3418ZM231.358 93.4721C231.358 92.3444 231.359 90.6636 231.202 88.8548L228.474 89.091C228.62 90.7682 228.62 92.3409 228.62 93.4721H231.358ZM222.46 102.37C227.374 102.37 231.358 98.3862 231.358 93.4721H228.62C228.62 96.8742 225.862 99.632 222.46 99.632V102.37ZM213.563 93.4721C213.563 98.3862 217.546 102.37 222.46 102.37V99.632C219.058 99.632 216.3 96.8742 216.3 93.4721H213.563ZM213.557 92.5798C213.56 92.9133 213.563 93.2102 213.563 93.4721H216.3C216.3 93.1946 216.297 92.8837 216.294 92.5539L213.557 92.5798ZM213.557 92.5666V92.5669H216.294V92.5666H213.557ZM213.594 88.9137C213.535 90.2902 213.547 91.5799 213.557 92.5796L216.294 92.5536C216.285 91.5491 216.273 90.327 216.33 89.0321L213.594 88.9137ZM198.481 90.3418H214.962V87.604H198.481V90.3418ZM191.636 83.4974C191.636 87.2774 194.701 90.3418 198.481 90.3418V87.604C196.213 87.604 194.374 85.7654 194.374 83.4974H191.636ZM191.636 65.1225V83.4974H194.374V65.1225H191.636ZM185.482 67.0755C187.24 67.0755 190.378 67.0798 193.289 66.4615L192.721 63.7835C190.131 64.3334 187.271 64.3378 185.482 64.3378V67.0755ZM176.584 58.1779C176.584 63.0919 180.568 67.0755 185.482 67.0755V64.3378C182.08 64.3378 179.322 61.5799 179.322 58.1779H176.584ZM185.482 49.2802C180.568 49.2802 176.584 53.2638 176.584 58.1779H179.322C179.322 54.7758 182.08 52.0179 185.482 52.0179V49.2802ZM186.374 49.2742C186.041 49.2774 185.744 49.2802 185.482 49.2802V52.0179C185.759 52.0179 186.07 52.015 186.4 52.0119L186.374 49.2742ZM186.387 49.2742H186.387V52.0119H186.387V49.2742ZM193.205 49.5972C190.72 49.2305 188.104 49.2578 186.374 49.2742L186.4 52.0119C188.157 51.9952 190.564 51.9749 192.805 52.3056L193.205 49.5972ZM191.636 32.8493V50.9514H194.374V32.8493H191.636Z" fill="#333333" mask="url(#path-11-inside-1_223_788)"/>
    <path d="M235.005 52.0664L225.905 52.6264C225.75 51.8486 225.415 51.1486 224.902 50.5264C224.388 49.8887 223.712 49.3831 222.872 49.0098C222.047 48.6209 221.06 48.4265 219.908 48.4265C218.369 48.4265 217.07 48.7531 216.012 49.4064C214.954 50.0442 214.425 50.8998 214.425 51.9731C214.425 52.8286 214.767 53.5519 215.452 54.143C216.136 54.7341 217.311 55.2086 218.975 55.5664L225.462 56.873C228.946 57.5885 231.544 58.7396 233.255 60.3263C234.966 61.9129 235.822 63.9973 235.822 66.5795C235.822 68.9284 235.129 70.9895 233.745 72.7628C232.376 74.5361 230.494 75.9205 228.098 76.916C225.718 77.896 222.973 78.386 219.862 78.386C215.117 78.386 211.337 77.3983 208.522 75.4227C205.722 73.4317 204.081 70.725 203.599 67.3029L213.375 66.7895C213.671 68.2362 214.386 69.3406 215.522 70.1028C216.657 70.8495 218.112 71.2228 219.885 71.2228C221.627 71.2228 223.027 70.8884 224.085 70.2195C225.158 69.535 225.703 68.6562 225.718 67.5828C225.703 66.6806 225.322 65.9418 224.575 65.3662C223.828 64.7751 222.677 64.324 221.122 64.0129L214.915 62.7762C211.415 62.0763 208.81 60.8629 207.099 59.1363C205.403 57.4097 204.555 55.2086 204.555 52.5331C204.555 50.2309 205.178 48.2476 206.422 46.5831C207.682 44.9187 209.448 43.6354 211.719 42.7332C214.005 41.831 216.681 41.3799 219.745 41.3799C224.272 41.3799 227.834 42.3365 230.432 44.2498C233.045 46.1632 234.569 48.7687 235.005 52.0664Z" fill="white"/>
    <path d="M235.005 52.0664L235.062 52.9872L236.049 52.9264L235.919 51.9456L235.005 52.0664ZM225.905 52.6264L225 52.8073L225.158 53.5966L225.962 53.5471L225.905 52.6264ZM224.902 50.5264L224.183 51.1049L224.19 51.1135L224.902 50.5264ZM222.872 49.0098L222.478 49.8441L222.488 49.8485L222.497 49.8528L222.872 49.0098ZM216.012 49.4064L216.488 50.1965L216.497 50.1913L216.012 49.4064ZM215.452 54.143L214.849 54.8412H214.849L215.452 54.143ZM218.975 55.5664L218.781 56.4683L218.793 56.4707L218.975 55.5664ZM225.462 56.873L225.647 55.9694L225.644 55.9687L225.462 56.873ZM233.255 60.3263L232.628 61.0027L233.255 60.3263ZM233.745 72.7628L233.018 72.1951L233.015 72.1991L233.745 72.7628ZM228.098 76.916L228.45 77.7691L228.452 77.7679L228.098 76.916ZM208.522 75.4227L207.987 76.1745L207.992 76.1779L208.522 75.4227ZM203.599 67.3029L203.55 66.3816L202.545 66.4344L202.685 67.4316L203.599 67.3029ZM213.375 66.7895L214.279 66.6049L214.12 65.8267L213.327 65.8683L213.375 66.7895ZM215.522 70.1028L215.008 70.8688L215.015 70.8736L215.522 70.1028ZM224.085 70.2195L224.578 70.9992L224.581 70.9973L224.085 70.2195ZM225.718 67.5828L226.641 67.5962L226.641 67.5816L226.641 67.5669L225.718 67.5828ZM224.575 65.3662L224.002 66.0895L224.012 66.0968L224.575 65.3662ZM221.122 64.0129L221.303 63.1083L221.302 63.1082L221.122 64.0129ZM214.915 62.7762L214.734 63.6808L214.735 63.681L214.915 62.7762ZM207.099 59.1363L206.44 59.7826L206.443 59.7856L207.099 59.1363ZM206.422 46.5831L205.686 46.0264L205.683 46.0308L206.422 46.5831ZM211.719 42.7332L211.38 41.8751L211.378 41.8759L211.719 42.7332ZM230.432 44.2498L229.885 44.9926L229.887 44.9942L230.432 44.2498ZM234.948 51.1457L225.848 51.7056L225.962 53.5471L235.062 52.9872L234.948 51.1457ZM226.81 52.4455C226.624 51.5159 226.222 50.6769 225.613 49.9394L224.19 51.1135C224.608 51.6204 224.875 52.1814 225 52.8073L226.81 52.4455ZM225.62 49.948C225.004 49.1826 224.204 48.5923 223.246 48.1668L222.497 49.8528C223.22 50.1739 223.773 50.5948 224.183 51.1048L225.62 49.948ZM223.265 48.1755C222.29 47.7153 221.161 47.504 219.908 47.504V49.3489C220.958 49.3489 221.805 49.5265 222.478 49.8441L223.265 48.1755ZM219.908 47.504C218.238 47.504 216.762 47.859 215.527 48.6216L216.497 50.1913C217.378 49.6472 218.499 49.3489 219.908 49.3489V47.504ZM215.536 48.6164C214.25 49.3913 213.503 50.5225 213.503 51.9731H215.348C215.348 51.277 215.658 50.6971 216.488 50.1964L215.536 48.6164ZM213.503 51.9731C213.503 53.1136 213.975 54.0862 214.849 54.8412L216.055 53.4449C215.56 53.0176 215.348 52.5436 215.348 51.9731H213.503ZM214.849 54.8412C215.714 55.5883 217.077 56.102 218.781 56.4682L219.169 54.6645C217.544 54.3152 216.559 53.88 216.055 53.4449L214.849 54.8412ZM218.793 56.4707L225.28 57.7773L225.644 55.9687L219.157 54.662L218.793 56.4707ZM225.276 57.7766C228.675 58.4747 231.089 59.5759 232.628 61.0027L233.882 59.6499C231.999 57.9034 229.217 56.7024 225.647 55.9694L225.276 57.7766ZM232.628 61.0027C234.129 62.3952 234.899 64.2237 234.899 66.5795H236.744C236.744 63.771 235.803 61.4307 233.882 59.6499L232.628 61.0027ZM234.899 66.5795C234.899 68.7324 234.27 70.5915 233.018 72.1951L234.472 73.3305C235.989 71.3875 236.744 69.1243 236.744 66.5795H234.899ZM233.015 72.1991C231.759 73.8263 230.015 75.1205 227.744 76.0642L228.452 77.7679C230.973 76.7206 232.994 75.2458 234.475 73.3265L233.015 72.1991ZM227.747 76.063C225.499 76.9886 222.877 77.4635 219.862 77.4635V79.3085C223.069 79.3085 225.938 78.8034 228.45 77.7691L227.747 76.063ZM219.862 77.4635C215.237 77.4635 211.663 76.4999 209.052 74.6676L207.992 76.1779C211.012 78.2966 214.998 79.3085 219.862 79.3085V77.4635ZM209.057 74.6709C206.465 72.8277 204.959 70.3471 204.512 67.1741L202.685 67.4316C203.203 71.103 204.98 74.0356 207.987 76.1745L209.057 74.6709ZM203.647 68.2241L213.424 67.7107L213.327 65.8683L203.55 66.3816L203.647 68.2241ZM212.471 66.9742C212.811 68.6374 213.654 69.9601 215.008 70.8688L216.036 69.3369C215.119 68.7211 214.53 67.8349 214.279 66.6049L212.471 66.9742ZM215.015 70.8736C216.341 71.7453 217.986 72.1453 219.885 72.1453V70.3003C218.238 70.3003 216.974 69.9537 216.029 69.332L215.015 70.8736ZM219.885 72.1453C221.736 72.1453 223.326 71.7911 224.578 70.9992L223.592 69.4398C222.729 69.9856 221.519 70.3003 219.885 70.3003V72.1453ZM224.581 70.9973C225.86 70.1818 226.62 69.0411 226.641 67.5962L224.796 67.5695C224.786 68.2712 224.457 68.8882 223.589 69.4417L224.581 70.9973ZM226.641 67.5669C226.62 66.3701 226.096 65.3735 225.138 64.6356L224.012 66.0968C224.548 66.51 224.786 66.9912 224.796 67.5988L226.641 67.5669ZM225.148 64.6429C224.235 63.9201 222.918 63.4313 221.303 63.1083L220.941 64.9175C222.437 65.2167 223.422 65.6302 224.002 66.0895L225.148 64.6429ZM221.302 63.1082L215.095 61.8715L214.735 63.681L220.942 64.9176L221.302 63.1082ZM215.096 61.8717C211.696 61.1917 209.288 60.0354 207.754 58.487L206.443 59.7856C208.331 61.6905 211.134 62.9608 214.734 63.6808L215.096 61.8717ZM207.757 58.49C206.249 56.9548 205.478 54.9948 205.478 52.5331H203.633C203.633 55.4224 204.557 57.8646 206.44 59.7826L207.757 58.49ZM205.478 52.5331C205.478 50.4074 206.048 48.6233 207.161 47.1355L205.683 46.0308C204.307 47.8719 203.633 50.0543 203.633 52.5331H205.478ZM207.158 47.1399C208.3 45.6314 209.918 44.4413 212.059 43.5905L211.378 41.8759C208.977 42.8296 207.064 44.2061 205.686 46.0264L207.158 47.1399ZM212.057 43.5913C214.213 42.7407 216.769 42.3024 219.745 42.3024V40.4574C216.592 40.4574 213.797 40.9213 211.38 41.8751L212.057 43.5913ZM219.745 42.3024C224.152 42.3024 227.498 43.2348 229.885 44.9926L230.979 43.5071C228.17 41.4383 224.391 40.4574 219.745 40.4574V42.3024ZM229.887 44.9942C232.291 46.7543 233.687 49.1314 234.09 52.1872L235.919 51.9456C235.452 48.4059 233.799 45.572 230.977 43.5055L229.887 44.9942Z" fill="#333333"/>
    <defs>
        <linearGradient id="paint0_linear_223_788" x1="151.291" y1="51.6612" x2="193.726" y2="111.623" gradientUnits="userSpaceOnUse">
            <stop offset="0.0796823" stop-color="#E8325B"/>
            <stop offset="1" stop-color="#3C3C3C"/>
        </linearGradient>
    </defs>
</svg>
