<svg width="459" height="459" viewBox="0 0 459 459" fill="none" xmlns="http://www.w3.org/2000/svg">
<path d="M172.125 222.342C170.223 222.342 168.399 221.586 167.054 220.241C165.709 218.896 164.954 217.072 164.953 215.17L164.953 193.654L129.094 193.654L129.094 215.17C129.062 217.051 128.292 218.844 126.951 220.163C125.609 221.481 123.804 222.22 121.922 222.22C120.041 222.22 118.235 221.481 116.894 220.163C115.552 218.844 114.782 217.051 114.75 215.17L114.75 190.754C114.75 184.444 119.589 179.311 125.536 179.311L168.509 179.311C174.457 179.311 179.296 184.444 179.296 190.754L179.296 215.17C179.296 216.112 179.111 217.044 178.75 217.914C178.39 218.785 177.862 219.575 177.196 220.241C176.53 220.907 175.74 221.436 174.87 221.796C174 222.157 173.067 222.342 172.125 222.342Z" fill="white"/>
<path d="M93.2347 222.342C91.3326 222.342 89.5085 221.586 88.1635 220.241C86.8186 218.896 86.0628 217.072 86.0625 215.17L86.0625 193.654L50.2037 193.654L50.2037 215.17C50.1715 217.051 49.4018 218.844 48.0602 220.163C46.7187 221.481 44.9128 222.22 43.0316 222.22C41.1504 222.22 39.3445 221.481 38.0029 220.163C36.6614 218.844 35.8916 217.051 35.8594 215.17L35.8594 190.754C35.8594 184.444 40.6983 179.311 46.6476 179.311L89.6218 179.311C95.5691 179.311 100.408 184.444 100.408 190.754L100.408 215.17C100.407 217.072 99.6511 218.896 98.306 220.241C96.9609 221.586 95.1368 222.342 93.2347 222.342Z" fill="white"/>
<path d="M258.188 222.342C256.286 222.342 254.462 221.586 253.117 220.241C251.772 218.896 251.016 217.072 251.016 215.17L251.016 193.654L215.157 193.654L215.157 215.17C215.125 217.051 214.355 218.844 213.013 220.163C211.672 221.481 209.866 222.22 207.985 222.22C206.104 222.22 204.298 221.481 202.956 220.163C201.615 218.844 200.845 217.051 200.813 215.17L200.813 190.754C200.813 184.444 205.652 179.311 211.599 179.311L254.574 179.311C260.521 179.311 265.36 184.444 265.36 190.754L265.36 215.17C265.36 217.072 264.604 218.896 263.259 220.241C261.914 221.586 260.09 222.342 258.188 222.342Z" fill="white"/>
<path d="M423.141 351.422C421.239 351.421 419.415 350.666 418.07 349.321C416.725 347.976 415.969 346.152 415.969 344.25L415.969 322.734L380.11 322.734L380.11 344.25C380.078 346.13 379.308 347.923 377.967 349.242C376.625 350.561 374.819 351.3 372.938 351.3C371.057 351.3 369.251 350.561 367.909 349.242C366.568 347.923 365.798 346.13 365.766 344.25L365.766 319.833C365.766 313.524 370.605 308.391 376.554 308.391L419.526 308.391C425.473 308.391 430.314 313.524 430.314 319.833L430.314 344.25C430.314 346.152 429.558 347.976 428.213 349.321C426.868 350.666 425.043 351.422 423.141 351.422Z" fill="white"/>
<path d="M445.309 458.999L178.644 458.999C171.096 458.999 164.953 452.836 164.953 445.265L164.953 350.812C164.953 343.239 171.094 337.078 178.644 337.078L445.309 337.078C452.857 337.078 459 343.241 459 350.812L459 445.265C459 452.839 452.857 458.999 445.309 458.999ZM179.299 444.655L444.657 444.655L444.657 351.421L179.299 351.421L179.299 444.655Z" fill="white"/>
<path d="M280.356 329.919L13.692 329.919C6.14264 329.919 8.01954e-06 323.757 7.49501e-06 316.185L9.51614e-07 221.735C4.26934e-07 214.161 6.14053 207.999 13.6909 207.999L280.356 207.999C287.904 207.999 294.045 214.161 294.045 221.735L294.045 316.185C294.047 323.759 287.904 329.919 280.356 329.919ZM14.3454 315.575L279.704 315.575L279.704 222.341L14.3454 222.341L14.3454 315.575Z" fill="white"/>
<path d="M137.097 458.999L13.5303 458.999C6.07547 458.999 0.0095295 452.836 0.00952898 445.265L0.00952244 350.812C0.00952191 343.239 6.07546 337.078 13.5302 337.078L137.097 337.078C144.552 337.078 150.618 343.241 150.618 350.812L150.618 445.265C150.618 452.839 144.553 458.999 137.097 458.999ZM14.3528 444.655L136.274 444.655L136.274 351.421L14.3528 351.421L14.3528 444.655Z" fill="white"/>
<path d="M359.621 107.584C358.371 107.583 357.144 107.255 356.059 106.633C354.975 106.011 354.072 105.117 353.44 104.038C352.808 102.96 352.469 101.735 352.456 100.485C352.443 99.2352 352.758 98.0037 353.367 96.9126L363.844 78.1706L331.183 58.6869L320.913 77.077C319.969 78.7072 318.423 79.901 316.607 80.4007C314.791 80.9004 312.852 80.6659 311.208 79.7477C309.563 78.8295 308.346 77.3014 307.819 75.4934C307.292 73.6854 307.497 71.7425 308.39 70.0844L320.193 48.9471C321.71 46.222 324.27 44.2028 327.214 43.4107C330.032 42.6501 332.948 43.0409 335.42 44.5117L373.942 67.4916C379.016 70.5393 380.696 77.3848 377.707 82.7637L365.888 103.908C365.266 105.024 364.357 105.953 363.255 106.599C362.153 107.246 360.899 107.586 359.621 107.584Z" fill="white"/>
<path d="M287.897 64.5533C286.647 64.5521 285.419 64.2243 284.335 63.6024C283.251 62.9804 282.348 62.0859 281.716 61.0074C281.084 59.929 280.745 58.7041 280.732 57.4542C280.719 56.2043 281.033 54.9728 281.643 53.8817L292.116 35.1418L259.465 15.6581L249.189 34.0408C248.245 35.6689 246.698 36.8604 244.883 37.3583C243.067 37.8561 241.129 37.6205 239.486 36.7021C237.843 35.7837 236.627 34.2563 236.1 32.4493C235.573 30.6423 235.778 28.7005 236.67 27.043L248.478 5.91621C250.007 3.1816 252.573 1.16347 255.516 0.374497C258.33 -0.381907 261.24 0.0162554 263.713 1.48809L302.22 24.4649C307.3 27.4863 308.99 34.3391 305.98 39.7369L294.167 60.8774C293.544 61.993 292.634 62.922 291.532 63.5683C290.43 64.2145 289.175 64.5546 287.897 64.5533Z" fill="white"/>
<path d="M431.342 150.627C430.093 150.626 428.865 150.298 427.78 149.676C426.696 149.055 425.793 148.161 425.161 147.082C424.529 146.004 424.189 144.779 424.176 143.53C424.163 142.28 424.477 141.048 425.086 139.957L435.555 121.215L402.902 101.729L392.631 120.119C391.688 121.75 390.142 122.944 388.326 123.443C386.51 123.943 384.571 123.708 382.926 122.79C381.282 121.872 380.065 120.344 379.538 118.536C379.01 116.728 379.216 114.785 380.109 113.127L391.912 91.9918C393.434 89.2645 395.996 87.2453 398.938 86.4532C401.759 85.6968 404.67 86.0876 407.139 87.5563L445.653 110.536C450.743 113.571 452.428 120.434 449.408 125.828L437.608 146.951C436.986 148.067 436.077 148.996 434.976 149.642C433.874 150.288 432.62 150.628 431.342 150.627Z" fill="white"/>
<path d="M399.106 251.025C396.817 251.025 394.498 250.451 392.379 249.241L164.603 118.987C163.043 118.103 161.677 116.915 160.583 115.494C159.489 114.073 158.691 112.448 158.234 110.714C157.77 108.994 157.654 107.199 157.893 105.434C158.132 103.669 158.722 101.969 159.627 100.435L205.871 21.0971C209.62 14.6635 217.936 12.4447 224.413 16.1573L452.173 146.394C453.728 147.277 455.092 148.462 456.183 149.878C457.275 151.294 458.073 152.915 458.531 154.643C459.47 158.15 458.983 161.806 457.158 164.937L410.903 244.288C408.39 248.605 403.805 251.023 399.106 251.025ZM172.437 106.945L398.878 236.436L444.342 158.439L217.896 28.9521L172.437 106.945Z" fill="white"/>
</svg>
