<svg width="19" height="19" viewBox="0 0 19 19" fill="none" xmlns="http://www.w3.org/2000/svg">
    <path d="M4.2108 11.4822L3.54944 13.9512L1.13217 14.0023C0.409762 12.6624 0 11.1294 0 9.50031C0 7.92498 0.383117 6.43942 1.06222 5.13135H1.06274L3.21479 5.52589L4.15751 7.66503C3.9602 8.24026 3.85266 8.85776 3.85266 9.50031C3.85273 10.1977 3.97905 10.8658 4.2108 11.4822Z" fill="#FBBB00"/>
    <path d="M18.8322 7.72559C18.9413 8.30026 18.9982 8.89375 18.9982 9.5003C18.9982 10.1804 18.9267 10.8439 18.7904 11.4838C18.328 13.6615 17.1196 15.5631 15.4456 16.9087L15.4451 16.9082L12.7345 16.7699L12.3509 14.3751C13.4616 13.7236 14.3297 12.7042 14.7869 11.4838H9.70703V7.72559H18.8322Z" fill="#518EF8"/>
    <path d="M15.4475 16.9079L15.4481 16.9084C13.82 18.217 11.7519 19 9.50064 19C5.88281 19 2.73738 16.9778 1.13281 14.002L4.21144 11.4819C5.01371 13.6231 7.07918 15.1473 9.50064 15.1473C10.5414 15.1473 11.5165 14.8659 12.3532 14.3747L15.4475 16.9079Z" fill="#28B446"/>
    <path d="M15.5641 2.18708L12.4865 4.70666C11.6206 4.16538 10.5969 3.8527 9.50028 3.8527C7.02401 3.8527 4.91991 5.4468 4.15783 7.66472L1.06302 5.13104H1.0625C2.64358 2.08269 5.82868 0 9.50028 0C11.8053 0 13.9188 0.821082 15.5641 2.18708Z" fill="#F14336"/>
</svg>