<svg width="861" height="1006" viewBox="0 0 861 1006" fill="none" xmlns="http://www.w3.org/2000/svg">
    <rect width="861" height="1006" fill="#22B1DB"/>
    <path fill-rule="evenodd" clip-rule="evenodd" d="M295.386 0C377.154 198.101 576.627 338 809.727 338C827.014 338 844.117 337.231 861 335.725V0H295.386Z" fill="#6CDCFC"/>
    <path d="M12.6036 416.802L0 402V689.477C0 689.477 17.2436 700.209 28.8083 707.395C42.0094 715.599 48.9628 720.75 61.2176 729.988C72.8456 738.754 90.0258 753.36 90.0258 753.36C90.0258 753.36 108.185 769.461 119.734 779.849C127.493 786.827 139.54 797.767 139.54 797.767C139.54 797.767 160.893 820.225 173.75 835.163C183.54 846.537 198.057 864.767 198.057 864.767C198.057 864.767 211.35 881.51 218.763 892.814C227.454 906.068 238.568 927.872 238.568 927.872C238.568 927.872 247.891 946.208 252.973 958.256C257.661 969.373 263.776 987.081 263.776 987.081L268.277 1005H860.647V681.686C860.647 681.686 826.814 656.844 803.03 643.512C784.401 633.068 753.516 619.36 753.516 619.36C753.516 619.36 721.007 606.134 699.501 599.105C674.328 590.877 633.782 581.186 633.782 581.186C633.782 581.186 591.702 572.4 564.462 567.942C540.666 564.047 503.244 559.372 503.244 559.372C503.244 559.372 467.049 556.343 443.827 554.698C419.586 552.98 381.709 550.802 381.709 550.802C381.709 550.802 344.886 549.027 321.392 546.907C297.753 544.773 261.075 539.895 261.075 539.895C261.075 539.895 231.776 534.949 213.361 530.547C189.356 524.807 153.044 512.628 153.044 512.628C153.044 512.628 124.401 499.794 107.131 490.035C92.1757 481.584 70.2201 466.663 70.2201 466.663C70.2201 466.663 47.99 448.39 34.2098 436.279C25.6615 428.766 12.6036 416.802 12.6036 416.802Z" fill="#58D2F5"/>
</svg>